<?xml version="1.0" standalone="no"?>
<!DOCTYPE svg PUBLIC "-//W3C//DTD SVG 20010904//EN"
 "http://www.w3.org/TR/2001/REC-SVG-20010904/DTD/svg10.dtd">
<svg version="1.0" xmlns="http://www.w3.org/2000/svg"
 width="2048.000000pt" height="2048.000000pt" viewBox="0 0 2048.000000 2048.000000"
 preserveAspectRatio="xMidYMid meet">

<g transform="translate(0.000000,2048.000000) scale(0.100000,-0.100000)"
fill="#000000" stroke="none">
<path d="M12685 14595 c-415 -425 -651 -814 -845 -1395 -92 -276 -168 -588
-300 -1245 -400 -1985 -687 -2910 -1156 -3726 -301 -525 -795 -1142 -1218
-1519 -292 -260 -626 -490 -941 -647 -390 -196 -785 -317 -1235 -379 -178 -24
-635 -30 -840 -10 -552 53 -1082 207 -1600 466 -454 227 -774 459 -1110 806
-251 260 -405 461 -757 991 -334 505 -419 594 -566 595 -273 3 -467 -462 -518
-1237 -26 -404 13 -832 112 -1228 360 -1431 1602 -2835 3139 -3547 831 -385
1722 -600 2785 -671 235 -16 917 -16 1165 0 1394 87 2637 383 3760 894 1339
609 2594 1556 3569 2692 80 94 193 220 251 280 654 685 1417 1843 1978 3005
543 1125 846 1986 938 2671 18 133 23 453 9 631 l-7 97 -24 -16 c-56 -36 -181
6 -342 116 -121 83 -203 167 -299 308 -52 75 -111 147 -158 191 -268 250 -804
324 -1139 156 -84 -43 -101 -55 -225 -157 -155 -129 -238 -154 -347 -103 -72
33 -121 97 -216 280 -123 236 -183 323 -322 461 -131 131 -245 214 -400 289
-187 92 -357 135 -567 143 -264 11 -438 -27 -699 -152 -96 -46 -199 -88 -228
-94 -166 -34 -413 11 -542 98 -68 45 -100 91 -100 143 0 47 6 59 86 171 92
128 108 176 108 317 0 96 -4 125 -22 171 -45 113 -118 182 -227 215 -85 25
-373 38 -585 25 -104 -6 -196 -8 -205 -5 -9 4 -20 16 -25 28 -7 19 -21 8 -135
-109z m1008 -1755 c76 -24 170 -89 209 -146 155 -224 87 -499 -154 -630 -145
-78 -287 -250 -364 -439 -70 -170 -103 -341 -179 -930 -95 -731 -164 -1087
-282 -1450 -107 -332 -273 -665 -388 -781 -161 -162 -420 -160 -584 3 -67 68
-107 146 -120 235 -17 120 7 200 118 387 64 107 110 215 176 416 93 280 158
607 230 1155 97 744 127 916 200 1137 130 393 365 723 662 924 82 56 179 107
237 125 62 19 165 17 239 -6z m-2031 -4911 c134 -28 236 -107 295 -227 37 -74
38 -79 38 -186 0 -111 0 -111 -47 -215 -239 -528 -614 -965 -973 -1132 -55
-26 -85 -34 -150 -37 -182 -10 -329 79 -408 246 -29 61 -32 75 -32 167 0 92 3
105 33 170 41 88 104 153 206 213 196 117 376 344 542 687 55 112 80 151 124
196 103 104 237 146 372 118z"/>
</g>
</svg>
